<?xml version="1.0" encoding="utf-8" ?>
<svg xmlns="http://www.w3.org/2000/svg" width="456" height="456"
     viewBox="-130 -174 716 716">
    <path fill="#EBDFB3" transform="scale(0.385135 0.385417)"
          d="M291.883 579.708C307.268 579.13 326.013 579.863 341.61 579.98L421.257 580.068L698.513 580.074L837.443 579.977L877.473 579.852C883.221 579.832 894.443 579.451 899.631 580.245C899.78 580.558 900.189 581.408 900.143 581.75C890.534 652.235 848.592 739.851 806.458 794.229C803.859 797.558 801.222 800.856 798.547 804.123C776.887 830.749 743.673 858.415 706.962 854.325C685.61 851.945 664.649 842.248 644.966 834.199C629.173 827.74 611.626 820.621 594.268 821.352C557.545 822.898 524.368 850.161 487.159 853.789C463.861 856.061 440.211 845.74 422.625 831.077C369.338 786.645 319.178 682.313 300.229 615.829C296.888 604.109 292.993 591.854 291.883 579.708Z"/>
    <path fill="#EBDFB3" transform="scale(0.385135 0.385417)"
          d="M463.815 217.109C470.161 216.368 478.419 217.296 484.791 218.263C495.338 219.781 505.701 222.379 515.717 226.014C539.557 234.909 565.238 249.992 591.518 251.706C612.723 253.088 634.681 242.886 653.688 234.374C691.83 216.827 731.99 210.644 771.914 225.606C856.166 257.181 903.619 339.292 912.477 425.682C913.028 431.052 915.591 441.874 913.821 446.738C910.985 448.534 780.139 447.658 766.326 447.681L280.023 447.56C279.618 436.886 281.179 426.168 282.275 415.542C290.833 332.582 342.243 249.358 424.57 223.231C436.596 219.415 451.296 217.936 463.815 217.109Z"/>
    <path fill="#EBDFB3" transform="scale(0.385135 0.385417)"
          d="M936.028 478.227L936.016 385.755C936.028 372.611 935.402 359.067 936.077 346.125C937.579 322.958 963.589 329.373 978.562 328.238C987.424 327.566 1001.76 330.699 1003.43 340.232C1005.13 349.951 1004.33 367.43 1004.31 377.803L1004.37 441.628L1004.09 596.164C1004.06 622.998 1004.17 649.831 1004.06 676.663C1004.02 688.6 999.266 693.289 987.904 695.533C975.961 695.968 960.12 696.278 948.288 694.299C942.58 693.344 936.636 686.246 936.722 680.111C937.325 637.21 934.602 592.854 936.326 550.058C919.674 549.699 902.287 549.976 885.554 549.856C835.955 549.482 786.353 549.371 736.752 549.525L421.744 549.55L313.638 549.653C293.362 549.689 271.166 550.148 251.004 549.537L250.949 637.103C250.936 650.91 251.233 665.481 250.611 679.298C250.41 682.516 249.178 685.109 247.538 687.804C245.57 691.036 240.546 694.631 236.662 694.804C223.839 695.374 210.306 695.372 197.45 694.914C189.746 694.64 184.118 687.093 183.401 679.839C182.201 666.847 182.854 653.482 182.914 640.418L182.986 564.441L182.66 415.58L182.658 373.063C182.629 364.717 182.49 356.282 182.705 348.013C182.884 341.102 185.037 334.289 191.637 331.089C194.909 329.503 197.69 329.145 201.267 328.705C201.65 328.627 203.53 328.41 204.127 328.47C215.057 329.559 236.638 326.106 245.022 333.004C247.515 335.551 250.503 340.997 250.605 344.531C251.889 388.827 249.894 434.023 251.164 478.279C271.832 477.838 294.155 478.265 314.909 478.275L435.6 478.332L755.257 478.302C815.006 478.305 876.442 479.034 936.028 478.227Z"/>
    <path fill="#EBDFB3" transform="scale(0.385135 0.385417)"
          d="M738.939 5.42728C742.064 5.11842 746.685 5.18203 749.927 5.12959C750.556 8.22915 750.837 11.3091 751.147 14.4478C755.555 58.9768 737.402 108.885 708.841 142.902C680.982 176.082 646.192 195.748 602.543 199.348C595.823 200.261 588.688 200.235 588.338 191.062C585.094 106.034 652.038 14.8472 738.939 5.42728Z"/>
    <path fill="#EBDFB3" transform="scale(0.385135 0.385417)"
          d="M108.184 378.958C117.102 378.057 145.235 377.446 152.831 381.285C164.101 386.98 161.339 410.106 161.311 421.631L161.207 472.804L161.236 575.315C161.223 592.526 161.275 609.736 161.086 626.946C160.954 638.951 157.314 644.223 145.534 647.16C140.322 647.564 134.31 647.135 129.255 647.456C86.805 650.147 92.5774 635.483 92.5294 600.763L92.4859 537.114L92.3709 446.627C92.3376 430.139 91.982 413.425 92.7172 396.971C93.141 387.485 98.8867 380.629 108.184 378.958Z"/>
    <path fill="#EBDFB3" transform="scale(0.385135 0.385417)"
          d="M1041.24 378.422C1096.28 377.355 1094.04 375.704 1093.93 428.169C1094.06 448.352 1094.05 468.536 1093.9 488.719L1094.06 584.741C1094.09 598.636 1094.88 622.134 1093.41 636.337C1092.99 640.354 1085.5 644.554 1081.43 646.262L1080.83 646.402C1071.62 648.439 1050.89 647.18 1041.17 646.576C1021.53 645.356 1025.61 618.513 1025.58 605.383L1025.44 551.533C1025.22 513.973 1025.19 476.411 1025.36 438.85C1025.5 424.405 1025.08 409.858 1025.72 395.444C1026.16 385.604 1031.96 380.165 1041.24 378.422Z"/>
    <path fill="#EBDFB3" transform="scale(0.385135 0.385417)"
          d="M1118.91 477.83C1121.86 477.738 1124.81 477.797 1127.76 478.006C1135.8 478.54 1142 481.595 1142.2 490.596C1142.59 507.44 1143.1 524.552 1142.44 541.373C1142.31 544.873 1139.4 546.931 1136.87 548.754C1131.56 551.052 1122.08 550.662 1116.12 550.581C1114.47 534 1115.25 498.116 1116.01 480.115C1116.06 478.875 1117.88 478.285 1118.91 477.83Z"/>
    <path fill="#EBDFB3" transform="scale(0.385135 0.385417)"
          d="M55.1215 477.768C60.0229 477.179 65.388 477.412 70.3075 477.748C70.7595 484.622 71.0774 547.47 69.7057 549.209C66.93 550.706 62.4809 550.772 59.2148 551.078C56.8674 550.765 54.5663 550.17 52.3614 549.306C49.4993 548.179 46.5303 546.375 45.3409 543.399C42.832 537.121 42.8505 490.663 45.7577 484.456C47.4999 480.737 51.5065 479.057 55.1215 477.768Z"/>
</svg>
